<svg xmlns="http://www.w3.org/2000/svg" version="1.1" xmlns:xlink="http://www.w3.org/1999/xlink" xmlns:svgjs="http://svgjs.dev/svgjs" width="1000" height="2129" viewBox="0 0 1000 2129"><g transform="matrix(1,0,0,1,0.8104996481353623,0.8619433198380193)"><svg viewBox="0 0 116 247" data-background-color="#0023ff" preserveAspectRatio="xMidYMid meet" height="2129" width="1000" xmlns="http://www.w3.org/2000/svg" xmlns:xlink="http://www.w3.org/1999/xlink"><defs></defs><g id="tight-bounds" transform="matrix(1,0,0,1,-0.09401795918370226,-0.09999999999999432)"><svg viewBox="0 0 116.18803591836736 247.2" height="247.2" width="116.18803591836736"><g><svg></svg></g><g><svg viewBox="0 0 116.18803591836736 247.2" height="247.2" width="116.18803591836736"><g transform="matrix(1,0,0,1,0,47.215199999999996)"><svg viewBox="0 0 116.18803591836736 152.7696" height="152.7696" width="116.18803591836736"><g><svg viewBox="0 0 116.18803591836736 152.7696" height="152.7696" width="116.18803591836736"><g><svg viewBox="0 0 116.18803591836736 152.7696" height="152.7696" width="116.18803591836736"><g><svg viewBox="0 0 116.18803591836736 152.7696" height="152.7696" width="116.18803591836736"><g><svg viewBox="0 0 116.18803591836736 152.7696" height="152.7696" width="116.18803591836736"><g><svg viewBox="0 0 116.18803591836736 152.7696" height="152.7696" width="116.18803591836736"><g transform="matrix(1,0,0,1,0,0)"><svg width="116.18803591836736" viewBox="1.75 -36.75 27.950000762939453 36.75" height="152.7696" data-palette-color="#f8fafc"><path d="M1.75 0L29.7 0 29.7-12.1 25.75-12.1 25.75-4 6.85-4 28.25-31.05 28.25-35 6.7-35 6.7-36.75 2.55-36.75 2.55-31.05 23.15-31.05 1.75-4 1.75 0Z" opacity="1" transform="matrix(1,0,0,1,0,0)" fill="#f8fafc" class="undefined-text-0" data-fill-palette-color="primary" id="text-0"></path></svg></g></svg></g></svg></g></svg></g><g></g></svg></g></svg></g></svg></g><path d="M0 41.215L0 1 116.188 1 116.188 41.215 102.411 41.215 102.411 14.777 13.777 14.777 13.777 41.215 0 41.215M0 205.985L0 246.2 116.188 246.2 116.188 205.985 102.411 205.985 102.411 232.423 13.777 232.423 13.777 205.985 0 205.985" fill="#f8fafc" stroke="transparent" data-fill-palette-color="primary"></path></svg></g></svg><rect width="116.18803591836736" height="247.2" fill="none" stroke="none" visibility="hidden"></rect></g></svg></g></svg>